<svg xmlns="http://www.w3.org/2000/svg" viewBox="0 0 64 64" fill="none" stroke="#d4af37" stroke-width="2" stroke-linecap="round" stroke-linejoin="round">
  <path d="M26 6l-8 14v32a4 4 0 0 0 4 4h20a4 4 0 0 0 4-4V20l-8-14h-4z"/>
  <rect x="22" y="10" width="20" height="4" rx="1"/>
  <path d="M18 26h28" stroke-width="1.5" opacity=".3"/>
  <ellipse cx="32" cy="6" rx="6" ry="3" transform="rotate(-20 32 6)"/>
  <path d="M32 6V2"/>
  <path d="M40 4q6-4 8-6M24 4q-6-4-8-6" stroke-width="1.8"/>
  <circle cx="22" cy="32" r="2" fill="#d4af37" opacity=".4"/>
  <circle cx="30" cy="36" r="1.5" fill="#d4af37" opacity=".3"/>
  <circle cx="38" cy="30" r="2" fill="#d4af37" opacity=".4"/>
  <circle cx="44" cy="38" r="1" fill="#d4af37" opacity=".3"/>
</svg>