<svg xmlns="http://www.w3.org/2000/svg" viewBox="0 0 64 64" fill="none" stroke="#d4af37" stroke-width="2" stroke-linecap="round" stroke-linejoin="round">
  <path d="M24 6l-8 12v34a4 4 0 0 0 4 4h24a4 4 0 0 0 4-4V18l-8-12h-4z"/>
  <path d="M18 22h28"/>
  <ellipse cx="32" cy="8" rx="7" ry="3" transform="rotate(-20 32 8)"/>
  <path d="M32 8V4"/>
  <path d="M40 6q4-4 8-6"/>
  <path d="M24 6q-4-4-8-6"/>
  <circle cx="20" cy="28" r="2" fill="#d4af37" opacity=".5"/>
  <circle cx="28" cy="34" r="1.5" fill="#d4af37" opacity=".4"/>
  <circle cx="36" cy="28" r="2" fill="#d4af37" opacity=".5"/>
  <circle cx="44" cy="36" r="1.5" fill="#d4af37" opacity=".4"/>
</svg>