<svg xmlns="http://www.w3.org/2000/svg" viewBox="0 0 200 200" width="200" height="200">
  <defs>
    <radialGradient id="darkBg" cx="50%" cy="50%" r="50%">
      <stop offset="0%" stop-color="#2a2a2e"/>
      <stop offset="80%" stop-color="#141416"/>
      <stop offset="100%" stop-color="#0a0a0b"/>
    </radialGradient>
    <linearGradient id="goldGrad" x1="0%" y1="0%" x2="100%" y2="100%">
      <stop offset="0%" stop-color="#FCE082"/>
      <stop offset="30%" stop-color="#DFAC42"/>
      <stop offset="70%" stop-color="#C68B27"/>
      <stop offset="100%" stop-color="#F7D369"/>
    </linearGradient>
    <linearGradient id="goldLine" x1="0%" y1="0%" x2="0%" y2="100%">
      <stop offset="0%" stop-color="#FFEAA5"/>
      <stop offset="50%" stop-color="#D49E35"/>
      <stop offset="100%" stop-color="#91651B"/>
    </linearGradient>
    <filter id="shadow" x="-20%" y="-20%" width="140%" height="140%">
      <feDropShadow dx="0" dy="4" stdDeviation="4" flood-color="#000000" flood-opacity="0.6"/>
    </filter>
  </defs>
  <circle cx="100" cy="100" r="92" fill="url(#darkBg)" stroke="url(#goldGrad)" stroke-width="3" filter="url(#shadow)"/>
  <circle cx="100" cy="100" r="85" fill="none" stroke="url(#goldGrad)" stroke-width="1" stroke-opacity="0.4"/>
  <g fill="none" stroke="url(#goldGrad)" stroke-linecap="round" stroke-linejoin="round">
    
      <path d="M72 70 L72 146 C72 150 75 152 79 152 L105 152 C109 152 112 150 112 146 L112 70 C112 62 108 58 100 56 L100 48 L84 48 L84 56 C76 58 72 62 72 70 Z" stroke-width="3" fill="#18181b"/>
      <rect x="86" y="40" width="12" height="8" rx="1" fill="url(#goldGrad)"/>
      <rect x="78" y="85" width="28" height="38" rx="2" stroke-width="1.5" fill="#242427"/>
      <text x="92" y="108" font-family="sans-serif" font-weight="bold" font-size="11" fill="url(#goldGrad)" text-anchor="middle" stroke="none">GIN</text>
      <path d="M52 120 C52 100 66 90 66 90 C66 90 62 110 52 120 Z" stroke-width="1.5" fill="url(#goldGrad)" fill-opacity="0.2"/>
      <path d="M48 135 C52 120 64 120 64 120 C64 120 56 135 48 135 Z" stroke-width="1.5" fill="url(#goldGrad)" fill-opacity="0.2"/>
      <circle cx="58" cy="100" r="3" fill="url(#goldGrad)"/>
      <circle cx="50" cy="108" r="2.5" fill="url(#goldGrad)"/>
      <circle cx="62" cy="112" r="2.5" fill="url(#goldGrad)"/>
      <path d="M132 120 C132 100 118 90 118 90 C118 90 122 110 132 120 Z" stroke-width="1.5" fill="url(#goldGrad)" fill-opacity="0.2"/>
      <circle cx="126" cy="100" r="3" fill="url(#goldGrad)"/>
    
  </g>
</svg>