<svg xmlns="http://www.w3.org/2000/svg" viewBox="0 0 64 64" fill="none" stroke="#d4af37" stroke-width="2" stroke-linecap="round" stroke-linejoin="round">
  <rect x="4" y="4" width="22" height="22" rx="4" fill="#d4af37" opacity=".06"/>
  <rect x="4" y="4" width="22" height="22" rx="4"/>
  <line x1="15" y1="10" x2="15" y2="20" stroke-width="1.5"/>
  <line x1="10" y1="15" x2="20" y2="15" stroke-width="1.5"/>
  <rect x="38" y="2" width="22" height="26" rx="4" fill="#d4af37" opacity=".06"/>
  <rect x="38" y="2" width="22" height="26" rx="4"/>
  <line x1="49" y1="8" x2="49" y2="22" stroke-width="1.5"/>
  <line x1="44" y1="15" x2="54" y2="15" stroke-width="1.5"/>
  <circle cx="16" cy="48" r="12" fill="#d4af37" opacity=".08"/>
  <circle cx="16" cy="48" r="12"/>
  <circle cx="16" cy="48" r="3" fill="#d4af37" opacity=".25"/>
  <path d="M8 42l16-10" stroke-width="1.5" opacity=".4"/>
  <path d="M8 50l14-8" stroke-width="1.5" opacity=".4"/>
  <path d="M10 38l2-2M22 44l2-2" stroke-width="1.2" opacity=".3"/>
</svg>