<svg xmlns="http://www.w3.org/2000/svg" viewBox="0 0 200 200" width="200" height="200">
  <defs>
    <radialGradient id="darkBg" cx="50%" cy="50%" r="50%">
      <stop offset="0%" stop-color="#2a2a2e"/>
      <stop offset="80%" stop-color="#141416"/>
      <stop offset="100%" stop-color="#0a0a0b"/>
    </radialGradient>
    <linearGradient id="goldGrad" x1="0%" y1="0%" x2="100%" y2="100%">
      <stop offset="0%" stop-color="#FCE082"/>
      <stop offset="30%" stop-color="#DFAC42"/>
      <stop offset="70%" stop-color="#C68B27"/>
      <stop offset="100%" stop-color="#F7D369"/>
    </linearGradient>
    <linearGradient id="goldLine" x1="0%" y1="0%" x2="0%" y2="100%">
      <stop offset="0%" stop-color="#FFEAA5"/>
      <stop offset="50%" stop-color="#D49E35"/>
      <stop offset="100%" stop-color="#91651B"/>
    </linearGradient>
    <filter id="shadow" x="-20%" y="-20%" width="140%" height="140%">
      <feDropShadow dx="0" dy="4" stdDeviation="4" flood-color="#000000" flood-opacity="0.6"/>
    </filter>
  </defs>
  <circle cx="100" cy="100" r="92" fill="url(#darkBg)" stroke="url(#goldGrad)" stroke-width="3" filter="url(#shadow)"/>
  <circle cx="100" cy="100" r="85" fill="none" stroke="url(#goldGrad)" stroke-width="1" stroke-opacity="0.4"/>
  <g fill="none" stroke="url(#goldGrad)" stroke-linecap="round" stroke-linejoin="round">
    
      <rect x="52" y="70" width="32" height="60" rx="12" stroke-width="2.5" fill="#18181b"/>
      <circle cx="68" cy="100" r="10" stroke-width="2" fill="url(#goldGrad)" fill-opacity="0.3"/>
      <rect x="96" y="76" width="28" height="54" rx="3" stroke-width="2.5" fill="#18181b"/>
      <path d="M100 76 L100 64 L120 64 L120 76" stroke-width="2" fill="url(#goldGrad)"/>
      <circle cx="110" cy="70" r="2" fill="#18181b"/>
      <rect x="132" y="90" width="24" height="40" rx="4" stroke-width="2" fill="url(#goldGrad)"/>
      <path d="M140 90 L140 68 C140 68 148 72 148 82 L148 90" stroke-width="1.5" fill="#18181b"/>
    
  </g>
</svg>