<svg xmlns="http://www.w3.org/2000/svg" viewBox="0 0 64 64" fill="none" stroke="#d4af37" stroke-width="2" stroke-linecap="round" stroke-linejoin="round">
  <path d="M8 44q0 10 8 10h6q8 0 8-10v-4H8v4z" fill="#d4af37" opacity=".08"/>
  <path d="M8 40h22"/>
  <line x1="19" y1="40" x2="19" y2="16"/>
  <path d="M14 16h10l-6-4-4 4z" fill="#d4af37" opacity=".15"/>
  <rect x="40" y="14" width="18" height="44" rx="4"/>
  <path d="M40 14V6a4 4 0 0 1 4-4h10a4 4 0 0 1 4 4v8"/>
  <path d="M44 22l8 6M44 28l8-6" stroke-width="1.5" opacity=".3"/>
</svg>