<svg xmlns="http://www.w3.org/2000/svg" viewBox="0 0 200 200" width="200" height="200">
  <defs>
    <radialGradient id="darkBg" cx="50%" cy="50%" r="50%">
      <stop offset="0%" stop-color="#2a2a2e"/>
      <stop offset="80%" stop-color="#141416"/>
      <stop offset="100%" stop-color="#0a0a0b"/>
    </radialGradient>
    <linearGradient id="goldGrad" x1="0%" y1="0%" x2="100%" y2="100%">
      <stop offset="0%" stop-color="#FCE082"/>
      <stop offset="30%" stop-color="#DFAC42"/>
      <stop offset="70%" stop-color="#C68B27"/>
      <stop offset="100%" stop-color="#F7D369"/>
    </linearGradient>
    <linearGradient id="goldLine" x1="0%" y1="0%" x2="0%" y2="100%">
      <stop offset="0%" stop-color="#FFEAA5"/>
      <stop offset="50%" stop-color="#D49E35"/>
      <stop offset="100%" stop-color="#91651B"/>
    </linearGradient>
    <filter id="shadow" x="-20%" y="-20%" width="140%" height="140%">
      <feDropShadow dx="0" dy="4" stdDeviation="4" flood-color="#000000" flood-opacity="0.6"/>
    </filter>
  </defs>
  <circle cx="100" cy="100" r="92" fill="url(#darkBg)" stroke="url(#goldGrad)" stroke-width="3" filter="url(#shadow)"/>
  <circle cx="100" cy="100" r="85" fill="none" stroke="url(#goldGrad)" stroke-width="1" stroke-opacity="0.4"/>
  <g fill="none" stroke="url(#goldGrad)" stroke-linecap="round" stroke-linejoin="round">
    
      <rect x="110" y="60" width="32" height="88" rx="6" stroke-width="3" fill="#18181b"/>
      <path d="M118 60 L118 50 L134 50 L134 60" stroke-width="2" fill="url(#goldGrad)"/>
      <path d="M142 80 C150 80 152 90 152 105 C152 120 150 130 142 130" stroke-width="2.5"/>
      <path d="M58 88 C56 108 52 128 64 142 C70 148 94 148 100 142 C110 128 106 108 104 88 Z" stroke-width="3" fill="#18181b"/>
      <ellipse cx="81" cy="88" rx="23" ry="6" stroke-width="2" fill="#242427"/>
      <line x1="88" y1="88" x2="104" y2="52" stroke-width="3"/>
      <circle cx="106" cy="49" r="3" fill="url(#goldGrad)"/>
    
  </g>
</svg>