<svg xmlns="http://www.w3.org/2000/svg" viewBox="0 0 200 200" width="200" height="200">
  <defs>
    <radialGradient id="darkBg" cx="50%" cy="50%" r="50%">
      <stop offset="0%" stop-color="#2a2a2e"/>
      <stop offset="80%" stop-color="#141416"/>
      <stop offset="100%" stop-color="#0a0a0b"/>
    </radialGradient>
    <linearGradient id="goldGrad" x1="0%" y1="0%" x2="100%" y2="100%">
      <stop offset="0%" stop-color="#FCE082"/>
      <stop offset="30%" stop-color="#DFAC42"/>
      <stop offset="70%" stop-color="#C68B27"/>
      <stop offset="100%" stop-color="#F7D369"/>
    </linearGradient>
    <linearGradient id="goldLine" x1="0%" y1="0%" x2="0%" y2="100%">
      <stop offset="0%" stop-color="#FFEAA5"/>
      <stop offset="50%" stop-color="#D49E35"/>
      <stop offset="100%" stop-color="#91651B"/>
    </linearGradient>
    <filter id="shadow" x="-20%" y="-20%" width="140%" height="140%">
      <feDropShadow dx="0" dy="4" stdDeviation="4" flood-color="#000000" flood-opacity="0.6"/>
    </filter>
  </defs>
  <circle cx="100" cy="100" r="92" fill="url(#darkBg)" stroke="url(#goldGrad)" stroke-width="3" filter="url(#shadow)"/>
  <circle cx="100" cy="100" r="85" fill="none" stroke="url(#goldGrad)" stroke-width="1" stroke-opacity="0.4"/>
  <g fill="none" stroke="url(#goldGrad)" stroke-linecap="round" stroke-linejoin="round">
    
      <rect x="74" y="58" width="52" height="92" rx="10" stroke-width="3" fill="#18181b"/>
      <path d="M86 58 L86 44 C86 40 90 38 100 38 C110 38 114 40 114 44 L114 58 Z" stroke-width="2.5" fill="url(#goldGrad)"/>
      <path d="M126 74 C140 74 142 86 142 104 C142 122 140 132 126 132" stroke-width="3"/>
      <line x1="80" y1="78" x2="120" y2="78" stroke-width="1.5" opacity="0.6"/>
    
  </g>
</svg>