<svg xmlns="http://www.w3.org/2000/svg" viewBox="0 0 200 200" width="200" height="200">
  <defs>
    <radialGradient id="darkBg" cx="50%" cy="50%" r="50%">
      <stop offset="0%" stop-color="#2a2a2e"/>
      <stop offset="80%" stop-color="#141416"/>
      <stop offset="100%" stop-color="#0a0a0b"/>
    </radialGradient>
    <linearGradient id="goldGrad" x1="0%" y1="0%" x2="100%" y2="100%">
      <stop offset="0%" stop-color="#FCE082"/>
      <stop offset="30%" stop-color="#DFAC42"/>
      <stop offset="70%" stop-color="#C68B27"/>
      <stop offset="100%" stop-color="#F7D369"/>
    </linearGradient>
    <linearGradient id="goldLine" x1="0%" y1="0%" x2="0%" y2="100%">
      <stop offset="0%" stop-color="#FFEAA5"/>
      <stop offset="50%" stop-color="#D49E35"/>
      <stop offset="100%" stop-color="#91651B"/>
    </linearGradient>
    <filter id="shadow" x="-20%" y="-20%" width="140%" height="140%">
      <feDropShadow dx="0" dy="4" stdDeviation="4" flood-color="#000000" flood-opacity="0.6"/>
    </filter>
  </defs>
  <circle cx="100" cy="100" r="92" fill="url(#darkBg)" stroke="url(#goldGrad)" stroke-width="3" filter="url(#shadow)"/>
  <circle cx="100" cy="100" r="85" fill="none" stroke="url(#goldGrad)" stroke-width="1" stroke-opacity="0.4"/>
  <g fill="none" stroke="url(#goldGrad)" stroke-linecap="round" stroke-linejoin="round">
    
      <path d="M60 70 L60 145 C60 149 63 152 67 152 L93 152 C97 152 100 149 100 145 L100 70 L95 70 L95 52 C95 50 93 48 91 48 L69 48 C67 48 65 50 65 52 L65 70 Z" stroke-width="3" fill="#18181b"/>
      <rect x="68" y="42" width="24" height="6" rx="1" fill="url(#goldGrad)"/>
      <rect x="67" y="90" width="26" height="40" rx="2" stroke-width="1.5" fill="#242427"/>
      <path d="M72 100 L88 100 M72 110 L88 110" stroke-width="1.5" opacity="0.7"/>
      <path d="M112 105 L116 148 C116 150 118 152 120 152 L144 152 C146 152 148 150 148 148 L152 105 Z" stroke-width="3" fill="#18181b"/>
      <line x1="114" y1="142" x2="150" y2="142" stroke-width="2"/>
      <rect x="120" y="122" width="12" height="12" rx="2" stroke-width="1.5" fill="url(#goldGrad)" fill-opacity="0.2"/>
      <rect x="132" y="116" width="11" height="11" rx="2" stroke-width="1.5" fill="url(#goldGrad)" fill-opacity="0.3"/>
      <path d="M48 55 L38 45 M45 75 L32 72 M48 95 L35 98 M110 55 L120 45 M115 70 L128 65" stroke-width="1.5" opacity="0.4"/>
    
  </g>
</svg>