<svg xmlns="http://www.w3.org/2000/svg" viewBox="0 0 64 64" fill="none" stroke="#d4af37" stroke-width="2" stroke-linecap="round" stroke-linejoin="round">
  <path d="M12 6h40v4l-6 8v38H18V18l-6-8V6z"/>
  <rect x="20" y="24" width="24" height="20" rx="2" fill="#d4af37" opacity=".12"/>
  <text x="32" y="38" text-anchor="middle" fill="#d4af37" opacity=".3" font-size="8" font-weight="bold" font-family="serif">MD</text>
  <rect x="6" y="36" width="18" height="20" rx="3"/>
  <path d="M8 48h14v4a2 2 0 0 1-2 2H10a2 2 0 0 1-2-2v-4z" fill="#d4af37" opacity=".25"/>
  <rect x="10" y="40" width="4" height="4" rx="1" fill="#d4af37" opacity=".35"/>
  <rect x="15" y="44" width="4" height="4" rx="1" fill="#d4af37" opacity=".35"/>
  <path d="M24 48v4" stroke-width="1"/>
  <path d="M24 52v2" stroke-width="1"/>
</svg>