<svg xmlns="http://www.w3.org/2000/svg" viewBox="0 0 64 64" fill="none" stroke="#d4af37" stroke-width="2" stroke-linecap="round" stroke-linejoin="round">
  <path d="M10 4h8l2 8v40a4 4 0 0 0 4 4h6a4 4 0 0 0 4-4V12l2-8h8"/>
  <path d="M12 16h22"/>
  <rect x="14" y="20" width="8" height="24" rx="2" fill="#d4af37" opacity=".1"/>
  <rect x="22" y="26" width="4" height="14" rx="1" fill="#d4af37" opacity=".08"/>
  <path d="M50 18q-8 0-10 14t0 18q2 4 10 4"/>
  <path d="M50 54l6 8H44l6-8z" fill="#d4af37" opacity=".15"/>
  <ellipse cx="50" cy="18" rx="5" ry="2" fill="#d4af37" opacity=".15"/>
</svg>